<svg id="Layer_1" data-name="Layer 1" xmlns="http://www.w3.org/2000/svg" viewBox="0 0 60 60"><defs><style>.cls-1{fill:#5e5e5e;}</style></defs><title>icons</title><path class="cls-1" d="M22.69,16.07a4.53,4.53,0,1,0-9.05,0V17.8h1.18V16.07a3.34,3.34,0,0,1,6.68,0v3.34H19.74v9.35A3.25,3.25,0,0,0,23,32h6.11a3.25,3.25,0,0,0,3.24-3.24V19.41H22.69Zm8.46,12.7a2.06,2.06,0,0,1-2.06,2.06H23a2.06,2.06,0,0,1-2.06-2.06V20.59H31.15Z"/><path class="cls-1" d="M26,29.64a1.72,1.72,0,1,0-1.72-1.72A1.73,1.73,0,0,0,26,29.64Zm0-2.26a.54.54,0,1,1-.54.54A.54.54,0,0,1,26,27.38Z"/><path class="cls-1" d="M48.63,26.35V10.68a2.57,2.57,0,0,0-2.57-2.57H7.81a2.57,2.57,0,0,0-2.57,2.57V32.26a2.57,2.57,0,0,0,2.57,2.57H35.08a12.11,12.11,0,0,0-.37,1.64H.93v3.62A2.11,2.11,0,0,0,3,42.2H35.17A12.18,12.18,0,1,0,48.63,26.35ZM7.81,33.64a1.38,1.38,0,0,1-1.38-1.38V10.68A1.38,1.38,0,0,1,7.81,9.3H46.06a1.38,1.38,0,0,1,1.38,1.38V26.23c-.23,0-.47,0-.7,0a12.21,12.21,0,0,0-11.23,7.45ZM3,41a.93.93,0,0,1-.93-.93V37.65H34.59c0,.24,0,.48,0,.73A12.16,12.16,0,0,0,34.84,41Zm43.7,8.37a11,11,0,1,1,11-11A11,11,0,0,1,46.74,49.39Z"/><path class="cls-1" d="M51.35,31.74l-6.68,6.68L42.22,36l-3.3,3.3L44.49,45,54.57,35ZM40.58,39.28l1.64-1.64,2.45,2.45,6.68-6.68L52.89,35,44.5,43.34Z"/></svg>