<svg id="Layer_1" data-name="Layer 1" xmlns="http://www.w3.org/2000/svg" viewBox="0 0 60 60"><defs><style>.cls-1{fill:#5e5e5e;}</style></defs><title>icons</title><path class="cls-1" d="M28.06,51.7a2.64,2.64,0,1,0,2.61,2.64A2.63,2.63,0,0,0,28.06,51.7Zm0,4.11a1.47,1.47,0,1,1,1.43-1.47A1.45,1.45,0,0,1,28.06,55.81Z"/><path class="cls-1" d="M57.12,14.08a11.15,11.15,0,0,0-1.71.34l-.49.12V10.7l-.62,0a11.13,11.13,0,0,0-1.71.34l-.36.09V8.89l-.62,0a19.17,19.17,0,0,0-9.4,2.74H24.36l-1.51-1.37-.28-.24L25,.89,8.33,5.28,2.74,23.66l8.48-2.53,2.07,1.47V56.18a2.8,2.8,0,0,0,2.89,2.71H39.94a2.8,2.8,0,0,0,2.89-2.71v-5.4A111.87,111.87,0,0,1,57,52.44l.7.13V14Zm-4.24-1.87.87-.21V47.84a43.1,43.1,0,0,0-8.14-.23,31.24,31.24,0,0,1,6-.32l.63,0v-35ZM18.11,17.75c.32-.32.67-.64,1-1H38v33l-.33,0H18.11Zm33,28.34c-2-.06-8,0-11.89,2.49V16.35c.41-.77,3.3-5.53,11.89-6.21ZM38.23,15.63H20.5c1.14-.92,2.39-1.85,3.81-2.79H40.62A11,11,0,0,0,38.23,15.63Zm-29-9.37L23.31,2.54,21.58,9.21,19.79,7.7a1.89,1.89,0,0,0-2.18-.41l-.87.45c-3.83,2.5-5.83,5.2-8.18,9.32l-.06.11v.13a2.88,2.88,0,0,0,1,2.41l.61.53L4.49,21.92Zm1,12.57a1.75,1.75,0,0,1-.63-1.3c2.27-4,4.11-6.44,7.67-8.76l.82-.42a.76.76,0,0,1,.85.23l3.07,2.61,1.12,1c-4.54,3.06-7.58,6-9.5,9.27l-2-1.4ZM41.65,56.18a1.63,1.63,0,0,1-1.71,1.53H16.18a1.63,1.63,0,0,1-1.71-1.53V22.46A19.8,19.8,0,0,1,16.94,19V51H39.17v-.15c.77-.06,1.61-.08,2.48-.07Zm14.92-5a99.64,99.64,0,0,0-15.22-1.57c4.91-1.66,12.81-.51,12.9-.5l.67.1V15.74l.77-.18.87-.2Z"/></svg>