<svg id="Layer_1" data-name="Layer 1" xmlns="http://www.w3.org/2000/svg" viewBox="0 0 60 60"><defs><style>.cls-1{fill:#5e5e5e;}</style></defs><title>icons</title><rect class="cls-1" x="23.5" y="13.56" width="11.7" height="1.22"/><rect class="cls-1" x="23.5" y="17.27" width="11.7" height="1.22"/><rect class="cls-1" x="23.5" y="20.97" width="11.7" height="1.22"/><path class="cls-1" d="M4.86,55.87v-52a1.65,1.65,0,0,1,1.5-1.77H36a1.65,1.65,0,0,1,1.5,1.77V17.75h1.22V3.83A2.86,2.86,0,0,0,36,.85H6.35a2.86,2.86,0,0,0-2.71,3v52a2.86,2.86,0,0,0,2.71,3H32.1V57.63H6.35A1.65,1.65,0,0,1,4.86,55.87Z"/><path class="cls-1" d="M17.06,21.69V14.57A1.63,1.63,0,0,0,15.44,13H8.33A1.63,1.63,0,0,0,6.7,14.57v7.11a1.63,1.63,0,0,0,1.62,1.62h7.11A1.63,1.63,0,0,0,17.06,21.69Zm-9.14,0V14.57a.41.41,0,0,1,.41-.41h7.11a.41.41,0,0,1,.41.41v7.11a.41.41,0,0,1-.41.41H8.33A.41.41,0,0,1,7.92,21.69Z"/><rect class="cls-1" x="17.01" y="4.05" width="8.22" height="1.47"/><path class="cls-1" d="M21,55.83a3.18,3.18,0,1,0-3.18-3.18A3.19,3.19,0,0,0,21,55.83Zm0-5.15a2,2,0,1,1-2,2A2,2,0,0,1,21,50.68Z"/><rect class="cls-1" x="28.7" y="46.62" width="1.52" height="1.22"/><rect class="cls-1" x="6.7" y="37.57" width="1.22" height="3.06"/><rect class="cls-1" x="11.99" y="25.9" width="3.06" height="1.22"/><rect class="cls-1" x="10.33" y="46.62" width="3.06" height="1.22"/><rect class="cls-1" x="22.57" y="46.62" width="3.06" height="1.22"/><rect class="cls-1" x="24.24" y="25.9" width="3.06" height="1.22"/><rect class="cls-1" x="16.45" y="46.62" width="3.06" height="1.22"/><path class="cls-1" d="M6.7,46.29a1.46,1.46,0,0,0,.21.76l1-.63a.25.25,0,0,1,0-.13v-2.6H6.7Z"/><rect class="cls-1" x="6.7" y="31.45" width="1.22" height="3.06"/><rect class="cls-1" x="18.12" y="25.9" width="3.06" height="1.22"/><path class="cls-1" d="M8.38,27.12h.56V25.9H8.38A1.62,1.62,0,0,0,6.7,27.46v.93H7.92v-.93C7.92,27.27,8.13,27.12,8.38,27.12Z"/><rect class="cls-1" x="30.38" y="25.9" width="1.52" height="1.22"/><path class="cls-1" d="M55.09,34.73a3.16,3.16,0,0,0-2,.68v0a3.17,3.17,0,0,0-5.37-2.28,3.17,3.17,0,0,0-4.88-1.27V24.36a3.17,3.17,0,1,0-6.34,0V40.24h-.36a4.46,4.46,0,0,0-3.43,1c-1,1-1.45,2.71-1.45,5.43,0,4.29,3.81,12.21,9.24,12.21h8.26a9.47,9.47,0,0,0,9.46-9.46V37.9A3.18,3.18,0,0,0,55.09,34.73Zm2,14.66a8.25,8.25,0,0,1-8.24,8.24H40.54c-4.56,0-8-7.33-8-11,0-2.31.37-3.85,1.1-4.57a2.92,2.92,0,0,1,2.19-.62h.37c.35,0,.68,0,1,0l.61-.06v-17a2,2,0,0,1,3.91,0V40.24h1.22V34.32a2,2,0,0,1,3.91,0v6H48V35.38a2,2,0,0,1,3.91,0V37.9h0v2.45h1.22V37.9a2,2,0,0,1,3.91,0Z"/></svg>