<svg id="Layer_1" data-name="Layer 1" xmlns="http://www.w3.org/2000/svg" viewBox="0 0 60 60"><defs><style>.cls-1{fill:#5e5e5e;}</style></defs><title>icons</title><path class="cls-1" d="M45.25,36.47h3.5a.59.59,0,0,0,.59-.59V7.12a.59.59,0,0,0-.59-.59H1.64A.59.59,0,0,0,1,7.12V49.84a.6.6,0,0,0,.59.59h27a.6.6,0,0,0,.59-.59V46.34a.59.59,0,0,0-.59-.59H6.88a1.1,1.1,0,0,1-1.1-1.1V26.32a1.1,1.1,0,0,1,1.1-1.1H43.55a1.1,1.1,0,0,1,1.1,1.1v9.56A.59.59,0,0,0,45.25,36.47ZM5.14,24a.59.59,0,0,0-.59.59V46.39a.6.6,0,0,0,.59.59H26.92a1.1,1.1,0,0,1,0,2.2H3.41a1.1,1.1,0,0,1-1.1-1.1V8.85a1.1,1.1,0,0,1,1.1-1.1H47a1.1,1.1,0,0,1,1.1,1.1V34.13a1.1,1.1,0,0,1-2.2,0V24.57A.59.59,0,0,0,45.3,24Z"/><path class="cls-1" d="M42.47,53a1.18,1.18,0,0,1-.85-.41l-6.45-6.46-2.5-2.5a1.32,1.32,0,0,1-.14-.18l-.26-.37.26-.4.45.38-.4-.44.17-.19,2.54-2.59,7.09,7.1L55.76,33.54,59,36.83l-.49.51-.31.32L55,40.91,43.41,52.51A1.36,1.36,0,0,1,42.47,53Zm-8.69-9.94L36,45.3l6.45,6.47h0l.1-.09,11.6-11.61,3.22-3.22-1.63-1.63L42.37,48.61l-7.09-7.09Z"/><path class="cls-1" d="M41.61,14.52H19.26a1.6,1.6,0,0,1-1.59-1.59V11.51a1.6,1.6,0,0,1,1.59-1.59H41.61a1.6,1.6,0,0,1,1.59,1.59v1.41A1.6,1.6,0,0,1,41.61,14.52ZM19.26,11.1a.41.41,0,0,0-.41.41v1.41a.41.41,0,0,0,.41.41H41.61a.41.41,0,0,0,.41-.41V11.51a.41.41,0,0,0-.41-.41Z"/><path class="cls-1" d="M37.24,21.75h-18a1.6,1.6,0,0,1-1.59-1.59V18.74a1.6,1.6,0,0,1,1.59-1.59h18a1.6,1.6,0,0,1,1.59,1.59v1.41A1.6,1.6,0,0,1,37.24,21.75Zm-18-3.42a.41.41,0,0,0-.41.41v1.41a.41.41,0,0,0,.41.41h18a.41.41,0,0,0,.41-.41V18.74a.41.41,0,0,0-.41-.41Z"/><path class="cls-1" d="M10,11.73h0a4.53,4.53,0,0,0-3.19,7.76A4.44,4.44,0,0,0,10,20.81a4.54,4.54,0,0,0,0-9.09Zm0,7.84h0a3.31,3.31,0,0,1-3.3-3.28A3.34,3.34,0,0,1,9.93,13h0a3.3,3.3,0,0,1,0,6.6Z"/></svg>