<svg id="Layer_1" data-name="Layer 1" xmlns="http://www.w3.org/2000/svg" viewBox="0 0 60 60"><defs><style>.cls-1{fill:#5e5e5e;}</style></defs><title>icons</title><path class="cls-1" d="M50.13,38.35A20.66,20.66,0,0,0,37.58,26.71l-.68-.23-.59-.2.22-.14.22-.14a2.22,2.22,0,0,0,.29-.2l.65-.56c.71-.6,1.44-1.22,2.13-1.87a.74.74,0,0,0,0-1.09.76.76,0,0,0-1-.23,1.84,1.84,0,0,0-.44.38l-.07.07a9.07,9.07,0,0,1-8.83,3,9.4,9.4,0,0,1-6.09-4.18,10,10,0,0,1-1.28-7.73A9.59,9.59,0,0,1,31.5,6.28h.41a9.56,9.56,0,0,1,8.85,8.2c.17,1.17.29,1.28,1.46,1.28h2.29V18.1H31.82a1.47,1.47,0,0,0-1.06.31.75.75,0,0,0-.2.56c0,.39.15.83,1.28.83H45.16a1.17,1.17,0,0,0,.85-.26.81.81,0,0,0,.21-.6c0-.41,0-.82,0-1.23a27.1,27.1,0,0,0-.15-3.78,14.78,14.78,0,0,0-29.41.71,1.17,1.17,0,0,0,.22.89,1.15,1.15,0,0,0,.85.26h2.52v.12a11.57,11.57,0,0,0,6,10.26l.23.14-.51.17-.3.1a20.49,20.49,0,0,0-13,11.72l0,.05a2.1,2.1,0,0,0-.14.38.82.82,0,0,0,1.52.61,3.77,3.77,0,0,0,.21-.44l.09-.21A18.85,18.85,0,0,1,26,28.3a18.33,18.33,0,0,1,15,2,19,19,0,0,1,7.43,8.63c.19.42.39.68.57.74a1.31,1.31,0,0,0,1-.16C50.32,39.25,50.36,38.88,50.13,38.35ZM20.4,14h-2V13.9A12.86,12.86,0,0,1,31.11,2.64h.2a13,13,0,0,1,13,11.28l0,.14H42.43l0-.1a11.35,11.35,0,0,0-11-9.37H31a11.38,11.38,0,0,0-10.56,9.35Z"/><path class="cls-1" d="M22.62,54.46c2.52,0,15.4,0,17.55,0a1.42,1.42,0,0,1,1.37.79,7.5,7.5,0,0,0,13.14-.39A1.16,1.16,0,0,0,53.59,53H53c-4.2.09-4.51-.08-4.61-.14a6.52,6.52,0,0,1-1.29-1.77l-.16-.27a.83.83,0,0,1,0-1c.37-.54.71-1.09,1-1.63a1,1,0,0,1,1-.53c1.82,0,3.3,0,4.68,0a1.17,1.17,0,0,0,1-.54,1.11,1.11,0,0,0,0-1.11,7.53,7.53,0,0,0-13.22-.43,1.23,1.23,0,0,1-1.18.66c-5.85,0-11.78,0-17.64,0a1.42,1.42,0,0,1-1.36-.75,7,7,0,0,0-6.7-3.58A7.26,7.26,0,0,0,8.09,46,1.2,1.2,0,0,0,8,47.22a1.27,1.27,0,0,0,1.13.54h.61c4.22-.09,4.54.08,4.64.14A7.73,7.73,0,0,1,15.82,50a.43.43,0,0,1,0,.37c-.24.59-.88,2.08-1,2.28a1,1,0,0,1-1,.54c-1.17,0-3.52,0-4.3,0H9.31a1.27,1.27,0,0,0-1.14.54,1.27,1.27,0,0,0,.13,1.26,7.34,7.34,0,0,0,6.56,4H15a7.3,7.3,0,0,0,6.57-3.88A1.11,1.11,0,0,1,22.62,54.46Zm-2.37-.16a6.15,6.15,0,0,1-4.56,3.17,6,6,0,0,1-5.16-1.78c-.1-.09-.18-.2-.31-.34l-.56-.64.76-.06.37,0h.8c1,0,2.17,0,3.35,0a.53.53,0,0,0,.54-.31c.76-1.27,1.48-2.44,2.22-3.57.13-.2.13-.3,0-.53-.82-1.29-1.55-2.46-2.21-3.57a.54.54,0,0,0-.57-.3c-1.1,0-2.21,0-3.26,0h-2L9.91,46a6.07,6.07,0,0,1,10.37.6,2,2,0,0,0,1.92,1.17H40.57a2,2,0,0,0,2-1.17,6.15,6.15,0,0,1,5-3.19,6,6,0,0,1,5.22,2.45l.29.41h-2c-1.1,0-2.13,0-3.18,0a.61.61,0,0,0-.64.36c-.63,1.07-1.32,2.18-2.19,3.52a.39.39,0,0,0,0,.53c.78,1.21,1.52,2.41,2.22,3.57.14.24.26.28.57.29h5.33l-.48.65a4.21,4.21,0,0,1-.31.4,6.05,6.05,0,0,1-9.78-1.06A2.65,2.65,0,0,0,40.07,53c-6.2,0-12.37,0-17.66,0A2.25,2.25,0,0,0,20.25,54.3Z"/></svg>